<svg width="68" height="68" viewBox="0 0 68 68" fill="none" xmlns="http://www.w3.org/2000/svg">
<path fill-rule="evenodd" clip-rule="evenodd" d="M45.5008 53.8325C41.1339 56.0392 36.1292 57.2927 30.8096 57.2927C13.7939 57.2927 0 44.4673 0 28.6464C0 12.8254 13.7939 0 30.8096 0C47.8252 0 61.6191 12.8254 61.6191 28.6464C61.6191 36.0537 58.5954 42.8044 53.6329 47.8896L68 61.248L60.7381 68L45.5008 53.8325ZM51.3493 28.6464C51.3493 39.1937 42.1533 47.744 30.8096 47.744C19.4658 47.744 10.2699 39.1937 10.2699 28.6464C10.2699 18.0991 19.4658 9.54879 30.8096 9.54879C42.1533 9.54879 51.3493 18.0991 51.3493 28.6464Z" fill="white"/>
</svg>
